<svg width="265" height="65" viewBox="0 0 265 65" fill="none" xmlns="http://www.w3.org/2000/svg">
<g clip-path="url(#clip0_3403_36246)">
<path d="M15.0406 36.0244C23.6942 36.0244 30.0244 42.0965 30.0244 50.5122C30.0244 58.9279 23.6942 65 15.0406 65C6.38708 65 0 58.9279 0 50.5122C0 42.0965 6.27945 36.0244 15.0406 36.0244ZM7.6909 50.5082C7.6909 54.9632 10.8022 58.1974 15.0406 58.1974C19.279 58.1974 22.3355 54.9652 22.3355 50.5082C22.3355 46.0512 19.1673 42.765 15.0406 42.765C10.9139 42.765 7.6909 46.0532 7.6909 50.5082Z" fill="#081840"/>
<path d="M30.2478 36.7469H34.3745V32.7922C34.3745 26.9983 38.2758 23.1537 44.212 23.1537C46.3038 23.1537 47.9448 23.4319 50.3168 24.2144L49.2405 30.0083C48.221 29.6741 47.5447 29.452 46.6978 29.452C43.8729 29.452 42.4594 31.013 42.4594 34.1291V36.7469H49.2466V43.3794H42.4655V64.1054H34.3197V43.3794H30.2498V36.7469H30.2478Z" fill="#081840"/>
<path d="M47.8311 36.7469H51.9578V32.7922C51.9578 26.9983 55.8591 23.1537 61.7953 23.1537C63.8871 23.1537 65.528 23.4319 67.9001 24.2144L66.8237 30.0083C65.8042 29.6741 65.128 29.452 64.2811 29.452C61.4561 29.452 60.0427 31.013 60.0427 34.1291V36.7469H66.8298V43.3794H60.0427V64.1054H51.9029V43.3794H47.8331V36.7469H47.8311Z" fill="#081840"/>
<path d="M75.0853 52.9618C75.7047 56.7504 78.3103 59.09 81.8725 59.09C84.4151 59.09 87.5833 57.3068 89.2791 54.8571L95.0467 58.7577C91.3709 63.2127 87.6401 64.9419 81.9293 64.9419C73.1072 64.9419 67.1162 59.204 67.1162 50.7883C67.1162 42.3726 73.2778 35.9663 81.7039 35.9663C90.13 35.9663 95.9484 42.0945 95.9484 50.8984C95.9484 51.3988 95.8916 52.1252 95.8916 52.9598H75.0853V52.9638V52.9618ZM75.0853 47.7783H87.9204C87.4696 43.9897 85.2092 41.7622 81.645 41.7622C78.0808 41.7622 75.8164 43.9897 75.0833 47.7783H75.0853Z" fill="#081840"/>
<path d="M98.7733 36.7469H106.913V41.37C107.876 37.9697 110.646 36.0204 114.659 36.0204C115.621 36.0204 116.186 36.0764 117.37 36.3546L115.9 44.0979C114.823 43.8197 114.09 43.7096 113.014 43.7096C109.846 43.7096 106.909 45.4368 106.909 50.7864V64.1014H98.7693V36.7469H98.7733Z" fill="#081840"/>
<path d="M120.097 42.2166H123.402V36.7789H129.868V42.2166H135.343V47.5202H129.868V55.6357C129.868 58.1314 130.319 59.5584 132.715 59.5584C133.438 59.5584 134.117 59.4243 134.976 59.1561L135.877 63.8813C133.796 64.4597 132.305 64.6818 130.674 64.6818C128.188 64.6818 126.154 63.8813 124.795 62.2322C123.619 60.8052 123.394 59.8706 123.394 56.7064V47.5222H120.089V42.2186H120.093L120.097 42.2166Z" fill="#081840"/>
<path d="M149.226 41.6382C156.149 41.6382 161.21 46.4975 161.21 53.226C161.21 59.9546 156.143 64.8139 149.226 64.8139C142.309 64.8139 137.195 59.9546 137.195 53.226C137.195 46.4975 142.22 41.6382 149.226 41.6382ZM143.347 53.226C143.347 56.7924 145.833 59.3762 149.226 59.3762C152.62 59.3762 155.063 56.7924 155.063 53.226C155.063 49.6596 152.53 47.0298 149.226 47.0298C145.837 47.0338 143.347 49.6596 143.347 53.226Z" fill="#081840"/>
<path d="M179.001 36.0244C187.654 36.0244 193.985 42.0965 193.985 50.5122C193.985 58.9279 187.654 65 179.001 65C170.347 65 163.96 58.9279 163.96 50.5122C163.96 42.0965 170.236 36.0244 179.001 36.0244ZM171.651 50.5082C171.651 54.9632 174.762 58.1974 179.001 58.1974C183.239 58.1974 186.296 54.9652 186.296 50.5082C186.296 46.0512 183.128 42.765 179.001 42.765C174.874 42.765 171.651 46.0532 171.651 50.5082Z" fill="#081840"/>
<path d="M201.052 36.7469L205.347 49.0633C205.855 50.5683 206.249 52.2414 206.367 54.523C206.592 52.2394 206.874 51.1787 207.557 49.0633L211.684 36.7469H217.732L221.858 49.0633C222.591 51.1807 222.76 52.1854 223.048 54.523C223.217 52.2394 223.499 50.5683 224.011 49.0633L228.363 36.7469H236.785L226.44 64.1055H220.335L215.983 51.567C215.25 49.4495 214.963 48.2227 214.738 45.5509C214.287 48.2788 214.173 49.2834 213.379 51.567L209.084 64.1055H202.918L192.573 36.7469H201.052Z" fill="#081840"/>
<path d="M239.048 36.7469H247.187V40.7576C248.771 37.6915 251.994 36.0204 255.841 36.0204C258.727 36.0204 261.438 37.1371 263.022 38.9744C264.549 40.7576 265 42.6529 265 46.7737V64.1014H256.86V48.781C256.86 45.2706 255.784 42.7089 252.34 42.7089C248.895 42.7089 247.193 45.2146 247.193 49.5075V64.1054H239.054V36.7469H239.05H239.048Z" fill="#081840"/>
<path d="M231.678 1.10675C231.678 1.10675 230.644 0 228.914 0C227.1 0 225.806 1.27887 225.806 1.27887L192.573 33.0944H211.048L228.743 16.0829L234.955 9.96074C234.955 9.96074 236.078 8.85399 237.719 8.85399C239.618 8.85399 240.741 9.87268 240.741 9.87268L231.675 1.10875L231.678 1.10675Z" fill="#D9D8D5"/>
<path d="M240.825 9.8707L264.996 33.0944H246.61L228.826 16.0829L235.039 9.96076C235.039 9.96076 236.162 8.85402 237.803 8.85402C239.706 8.85001 240.825 9.87271 240.825 9.87271" fill="#081840"/>
</g>
<defs>
<clipPath id="clip0_3403_36246">
<rect width="265" height="65" fill="white"/>
</clipPath>
</defs>
</svg>
