<svg width="45" height="36" viewBox="0 0 45 36" fill="none" xmlns="http://www.w3.org/2000/svg">
<g clip-path="url(#clip0_3403_36040)">
<path d="M44.3662 5.38731V4.43661C44.3662 2.33872 42.6613 0.633789 40.5634 0.633789H19.6479C17.55 0.633789 15.8451 2.33872 15.8451 4.43661V19.6479C15.8451 21.7458 17.55 23.4507 19.6479 23.4507H29.6937C29.9662 23.4507 30.226 23.5711 30.4099 23.7739L33.4584 27.2535L36.1775 23.812C36.3549 23.5838 36.6338 23.4507 36.9253 23.4507H40.5697C42.6676 23.4507 44.3725 21.7458 44.3725 19.6479V9.19013" stroke="#01093F" stroke-width="2" stroke-linecap="round" stroke-linejoin="round"/>
<path d="M25.3521 27.2535C25.3521 29.3514 23.6472 31.0563 21.5493 31.0563H15.9591C15.6866 31.0563 15.4267 31.1767 15.2429 31.3795L12.1944 34.8591L9.47534 31.4176C9.29787 31.1894 9.019 31.0563 8.72745 31.0563H4.43661C2.33872 31.0563 0.633789 29.3514 0.633789 27.2535V12.0422C0.633789 9.94434 2.33872 8.23941 4.43661 8.23941H12.0422" stroke="#D9D8D6" stroke-width="2" stroke-linecap="round" stroke-linejoin="round"/>
<path d="M35.5563 8.06829C34.9986 7.60562 34.0289 7.10491 32.5965 7.3521C31.3922 7.56125 30.562 8.15069 30.1056 8.56266C29.6493 8.15069 28.8127 7.56125 27.6148 7.3521C27.3549 7.30773 27.1077 7.28238 26.8732 7.28238C24.6676 7.28238 23.4507 9.14576 23.4507 10.426C23.4507 11.7063 23.7422 12.5683 24.6993 13.8739C25.9035 15.5091 28.0077 17.626 30.0042 18.6655C30.0359 18.6845 30.0739 18.6908 30.1056 18.6908C30.1373 18.6908 30.1753 18.6845 30.207 18.6655C32.2035 17.626 34.3077 15.5091 35.512 13.8739C36.019 13.1831 36.3232 12.638 36.5134 12.112C36.6908 11.6113 36.7605 11.1105 36.7605 10.4324C36.7605 9.6021 36.2852 8.67674 35.5563 8.06829V8.06829Z" stroke="#E3AB63" stroke-width="2" stroke-linecap="round" stroke-linejoin="round"/>
<path d="M13.988 25.2254L11.6112 24.0148C11.288 23.85 10.8951 23.85 10.5718 24.0148L8.19505 25.2254C7.37111 25.6437 6.41407 24.9655 6.57252 24.0845L7.02885 21.5239C7.09224 21.169 6.97181 20.8141 6.70562 20.5669L4.78519 18.7542C4.1197 18.1268 4.4873 17.0366 5.40632 16.9035L8.06195 16.5296C8.42956 16.4789 8.74012 16.257 8.90491 15.9338L10.0965 13.6014C10.5084 12.7965 11.6936 12.7965 12.1056 13.6014L13.0056 15.3634" stroke="#E3AB63" stroke-width="2" stroke-linecap="round" stroke-linejoin="round"/>
</g>
<defs>
<clipPath id="clip0_3403_36040">
<rect width="45" height="35.493" fill="white"/>
</clipPath>
</defs>
</svg>
