<svg width="45" height="33" viewBox="0 0 45 33" fill="none" xmlns="http://www.w3.org/2000/svg">
<g clip-path="url(#clip0_3403_36011)">
<path d="M11.598 24.4459H7.38781C6.57734 24.4459 5.77481 24.2888 5.02604 23.9835C4.27727 23.6783 3.59692 23.2308 3.02383 22.6667C2.45075 22.1027 1.99615 21.433 1.686 20.696C1.37585 19.959 1.21622 19.1691 1.21622 18.3714C1.21622 17.5737 1.37585 16.7837 1.686 16.0467C1.99615 15.3097 2.45075 14.6401 3.02383 14.076C3.59692 13.5119 4.27727 13.0645 5.02604 12.7592C5.77481 12.4539 6.57734 12.2968 7.38781 12.2968C7.80344 12.2969 8.21804 12.3376 8.62551 12.4183C8.62551 12.3967 8.62551 12.3734 8.62551 12.3501C8.62634 11.2015 8.9154 10.0709 9.46699 9.05878C10.0186 8.04664 10.8156 7.18428 11.7873 6.54831C12.759 5.91234 13.8753 5.52247 15.0369 5.41332C16.1985 5.30417 17.3696 5.47913 18.4459 5.92266" stroke="#D9D8D6" stroke-width="2" stroke-linecap="round" stroke-linejoin="round"/>
<path d="M27.5676 4.37837C28.8445 4.37767 30.0749 4.79023 31.0139 5.53394C31.9529 6.27765 32.5317 7.29799 32.6351 8.39189" stroke="#D9D8D6" stroke-width="2" stroke-linecap="round" stroke-linejoin="round"/>
<path d="M18.446 8.43821C18.647 7.66459 18.9238 6.91133 19.2727 6.18867C20.1842 4.45725 21.6598 3.06534 23.471 2.22865C25.2821 1.39196 27.3276 1.1572 29.2905 1.56076C31.2534 1.96431 33.024 2.98364 34.3281 4.46079C35.6321 5.93794 36.3967 7.79042 36.5034 9.73116C38.4923 9.81217 40.3689 10.6458 41.7299 12.0527C43.091 13.4597 43.8277 15.3277 43.7818 17.2552C43.7358 19.1826 42.9109 21.0157 41.4843 22.3604C40.0577 23.705 38.1433 24.4538 36.1527 24.4459H32.3528" stroke="#D9D8D6" stroke-width="2" stroke-linecap="round" stroke-linejoin="round"/>
<path d="M24.0194 31.4696C21.9555 29.7955 15.2982 28.56 15.4067 23.4339V13.6805C18.5682 13.6805 20.6216 13.6353 24.0194 11.402C27.4189 13.6353 29.4723 13.6805 32.6338 13.6805V23.4339C32.7424 28.56 26.085 29.7955 24.0194 31.4696Z" stroke="#01093F" stroke-width="2" stroke-linecap="round" stroke-linejoin="round"/>
<path d="M26.7929 21.652L23.0227 25.4493L18.446 21.3947L20.0059 19.8635L22.9129 22.3356L26.9096 18.4257L28.5811 19.8491" stroke="#E3AB63" stroke-width="2" stroke-linecap="round" stroke-linejoin="round"/>
</g>
<defs>
<clipPath id="clip0_3403_36011">
<rect width="45" height="32.8378" fill="white"/>
</clipPath>
</defs>
</svg>
