<svg width="40" height="42" viewBox="0 0 40 42" fill="none" xmlns="http://www.w3.org/2000/svg">
<path d="M30.2184 17.5588C30.2182 15.5705 29.6224 13.627 28.5065 11.9747C27.3906 10.3224 25.8048 9.0357 23.9503 8.27768C24.0005 8.02702 24.0261 7.77214 24.0267 7.51659C24.0267 6.48084 23.6116 5.48752 22.8726 4.75513C22.1337 4.02275 21.1315 3.6113 20.0865 3.6113C19.0415 3.6113 18.0393 4.02275 17.3004 4.75513C16.5615 5.48752 16.1463 6.48084 16.1463 7.51659C16.147 7.77214 16.1726 8.02702 16.2228 8.27768C14.3682 9.0357 12.7825 10.3224 11.6666 11.9747C10.5507 13.627 9.95486 15.5705 9.95465 17.5588C9.95465 17.5588 10.0884 22.6091 9.39176 25.3694C8.82888 27.6078 7.70312 27.6078 7.70312 27.6078C7.40653 27.6078 7.11285 27.6657 6.83884 27.7782C6.56483 27.8907 6.31585 28.0556 6.10613 28.2635C5.89641 28.4713 5.73006 28.7181 5.61656 28.9897C5.50306 29.2613 5.44464 29.5524 5.44464 29.8463V29.8463C5.44464 30.1403 5.50306 30.4314 5.61656 30.703C5.73006 30.9745 5.89641 31.2213 6.10613 31.4292C6.31585 31.637 6.56483 31.8019 6.83884 31.9144C7.11285 32.0269 7.40653 32.0848 7.70312 32.0848H32.4699C33.0689 32.0848 33.6434 31.849 34.0669 31.4292C34.4905 31.0094 34.7284 30.44 34.7284 29.8463V29.8463C34.7284 29.2526 34.4905 28.6833 34.0669 28.2635C33.6434 27.8437 33.0689 27.6078 32.4699 27.6078C32.4699 27.6078 31.2226 27.5648 30.7813 25.3694C30.2184 22.5799 30.2184 17.5588 30.2184 17.5588Z" stroke="#01093F" stroke-width="2" stroke-linecap="round" stroke-linejoin="round"/>
<path d="M7.70303 27.601H13.992" stroke="#01093F" stroke-width="2" stroke-linecap="round" stroke-linejoin="round"/>
<path d="M23.9844 35.4375C23.7432 36.2502 23.248 36.9629 22.5724 37.4696C21.8967 37.9763 21.0768 38.25 20.2344 38.25C19.3919 38.25 18.572 37.9763 17.8964 37.4696C17.2208 36.9629 16.7256 36.2502 16.4844 35.4375" stroke="#E3AB63" stroke-width="2" stroke-linecap="round" stroke-linejoin="round"/>
<path d="M7.31948 11.6836C7.25082 11.311 7.25702 10.9287 7.33772 10.5585C7.41841 10.1883 7.57201 9.83746 7.78972 9.52619C8.00743 9.21491 8.28497 8.94927 8.60643 8.74449C8.9279 8.5397 9.28697 8.3998 9.66308 8.33279" stroke="#D9D8D6" stroke-width="2" stroke-linecap="round" stroke-linejoin="round"/>
<path d="M3.44874 11.6836C3.18445 10.2337 3.51177 8.73916 4.35875 7.52836C5.20574 6.31756 6.50309 5.4896 7.9657 5.22644" stroke="#D9D8D6" stroke-width="2" stroke-linecap="round" stroke-linejoin="round"/>
<path d="M33.1494 11.6836C33.286 10.9324 33.1161 10.1581 32.6769 9.53108C32.2378 8.90401 31.5654 8.47547 30.8075 8.33966" stroke="#D9D8D6" stroke-width="2" stroke-linecap="round" stroke-linejoin="round"/>
<path d="M37.0202 11.6836C37.2845 10.2337 36.9571 8.73916 36.1102 7.52836C35.2632 6.31756 33.9658 5.4896 32.5032 5.22644" stroke="#D9D8D6" stroke-width="2" stroke-linecap="round" stroke-linejoin="round"/>
</svg>
