<svg width="41" height="38" viewBox="0 0 41 38" fill="none" xmlns="http://www.w3.org/2000/svg">
<path d="M13.7453 18.0309L22.0541 10.527L24.9295 4.8399C25.5543 3.60419 28.0207 4.02677 28.5278 5.3201C29.0348 6.61343 28.4705 9.98281 27.7836 11.1961L25.1503 15.838L34.8182 15.2554C36.2248 15.1705 37.5644 16.1886 37.5644 17.5667C37.5644 18.7768 36.8284 19.8525 35.6998 20.1694C35.3569 20.2282 35.0093 20.2571 34.6612 20.2558L34.4175 20.235L35.3432 20.8097C35.556 20.9382 35.7367 21.1117 35.872 21.3175C36.0072 21.5233 36.0937 21.7562 36.1251 21.9989V21.9989C36.1632 22.5128 36.0392 23.0257 35.7698 23.4682C35.5004 23.9108 35.0986 24.2618 34.6187 24.4736C34.4633 24.5424 33.6373 24.5216 33.4738 24.5584C33.6095 24.64 34.393 24.8097 34.5091 24.9121C34.998 25.3438 35.2975 25.9437 35.3449 26.5864V26.5864C35.3831 27.1009 35.2588 27.6144 34.9888 28.0573C34.7187 28.5003 34.316 28.8512 33.8352 29.0626C33.6815 29.1299 32.5153 29.1459 32.3452 29.1827C32.5578 29.3107 33.7535 29.5028 33.9203 29.6885C34.2975 30.0989 34.5248 30.6202 34.5663 31.1707C34.6727 32.5457 33.6128 33.8278 32.2046 33.8582L21.8382 34.0807C18.0633 34.1607 14.7659 32.1039 12.8507 29.2915" stroke="#01093F" stroke-width="2" stroke-linecap="round" stroke-linejoin="round"/>
<path d="M5.82746 14.908H10.5707C11.0943 14.9093 11.5961 15.1134 11.9663 15.4758C12.3366 15.8381 12.5451 16.3292 12.5464 16.8416V32.1487C12.5451 32.6611 12.3366 33.1522 11.9663 33.5146C11.5961 33.8769 11.0943 34.081 10.5707 34.0823H5.82746C5.3037 34.081 4.80173 33.877 4.43122 33.5147C4.06071 33.1524 3.85176 32.6613 3.85004 32.1487V16.8416C3.85176 16.3291 4.06071 15.838 4.43122 15.4757C4.80173 15.1134 5.3037 14.9093 5.82746 14.908V14.908Z" stroke="#D9D8D6" stroke-width="2" stroke-linecap="round" stroke-linejoin="round"/>
<path d="M8.23831 29.4708H8.33481" stroke="#E3AB63" stroke-width="4" stroke-linecap="round" stroke-linejoin="round"/>
</svg>
